<svg version="1.0" preserveAspectRatio="xMidYMid meet" viewBox="443.82452193475814 129.59999888000002 552.3509561304837 554.039995212" zoomAndPan="magnify" xmlns:xlink="http://www.w3.org/1999/xlink" xmlns="http://www.w3.org/2000/svg" style="max-height: 500px" width="552.3509561304837" height="554.039995212"><defs><clipPath id="ac67197bd3"><path clip-rule="nonzero" d="M 452.726562 137.675781 L 986.351562 137.675781 L 986.351562 671.300781 L 452.726562 671.300781 Z M 452.726562 137.675781"/></clipPath><clipPath id="40ed174606"><path clip-rule="nonzero" d="M 719.539062 137.675781 C 572.179688 137.675781 452.726562 257.132812 452.726562 404.488281 C 452.726562 551.84375 572.179688 671.300781 719.539062 671.300781 C 866.894531 671.300781 986.351562 551.84375 986.351562 404.488281 C 986.351562 257.132812 866.894531 137.675781 719.539062 137.675781 Z M 719.539062 137.675781"/></clipPath><clipPath id="265a0cbd19"><path clip-rule="nonzero" d="M 0.726562 0.675781 L 534.351562 0.675781 L 534.351562 534.300781 L 0.726562 534.300781 Z M 0.726562 0.675781"/></clipPath><clipPath id="fd25e9c0e2"><path clip-rule="nonzero" d="M 267.539062 0.675781 C 120.179688 0.675781 0.726562 120.132812 0.726562 267.488281 C 0.726562 414.84375 120.179688 534.300781 267.539062 534.300781 C 414.894531 534.300781 534.351562 414.84375 534.351562 267.488281 C 534.351562 120.132812 414.894531 0.675781 267.539062 0.675781 Z M 267.539062 0.675781"/></clipPath><clipPath id="d0a62b9e51"><rect height="535" y="0" width="535" x="0"/></clipPath><clipPath id="e19c4a8805"><path clip-rule="nonzero" d="M 499.222656 478.0625 L 703.792969 478.0625 L 703.792969 512.535156 L 499.222656 512.535156 Z M 499.222656 478.0625"/></clipPath><clipPath id="5badf49821"><path clip-rule="nonzero" d="M 0.222656 0.0625 L 204.792969 0.0625 L 204.792969 34.535156 L 0.222656 34.535156 Z M 0.222656 0.0625"/></clipPath><clipPath id="c14e266c84"><rect height="35" y="0" width="205" x="0"/></clipPath><clipPath id="14cca95119"><path clip-rule="nonzero" d="M 499.222656 307.964844 L 703.792969 307.964844 L 703.792969 342.4375 L 499.222656 342.4375 Z M 499.222656 307.964844"/></clipPath><clipPath id="12fa237c60"><path clip-rule="nonzero" d="M 0.222656 0.964844 L 204.792969 0.964844 L 204.792969 35.4375 L 0.222656 35.4375 Z M 0.222656 0.964844"/></clipPath><clipPath id="977c34265f"><rect height="36" y="0" width="205" x="0"/></clipPath><clipPath id="ac40dbdc7a"><path clip-rule="nonzero" d="M 499.21875 307.964844 L 533.6875 307.964844 L 533.6875 512.535156 L 499.21875 512.535156 Z M 499.21875 307.964844"/></clipPath><clipPath id="57846cca0a"><path clip-rule="nonzero" d="M 0.21875 0.964844 L 34.6875 0.964844 L 34.6875 205.535156 L 0.21875 205.535156 Z M 0.21875 0.964844"/></clipPath><clipPath id="6824e1d31d"><rect height="206" y="0" width="35" x="0"/></clipPath><clipPath id="4dba071e0d"><path clip-rule="nonzero" d="M 736.207031 478.0625 L 940.777344 478.0625 L 940.777344 512.535156 L 736.207031 512.535156 Z M 736.207031 478.0625"/></clipPath><clipPath id="32fc1e3de7"><path clip-rule="nonzero" d="M 0.207031 0.0625 L 204.777344 0.0625 L 204.777344 34.535156 L 0.207031 34.535156 Z M 0.207031 0.0625"/></clipPath><clipPath id="134e0b2e03"><rect height="35" y="0" width="205" x="0"/></clipPath><clipPath id="6e2d2456d2"><path clip-rule="nonzero" d="M 736.207031 307.964844 L 940.777344 307.964844 L 940.777344 342.4375 L 736.207031 342.4375 Z M 736.207031 307.964844"/></clipPath><clipPath id="1c9b869f59"><path clip-rule="nonzero" d="M 0.207031 0.964844 L 204.777344 0.964844 L 204.777344 35.4375 L 0.207031 35.4375 Z M 0.207031 0.964844"/></clipPath><clipPath id="313c50e628"><rect height="36" y="0" width="205" x="0"/></clipPath><clipPath id="84a21d5139"><path clip-rule="nonzero" d="M 736.207031 393.015625 L 940.777344 393.015625 L 940.777344 427.484375 L 736.207031 427.484375 Z M 736.207031 393.015625"/></clipPath><clipPath id="a9cd778dab"><path clip-rule="nonzero" d="M 0.207031 0.015625 L 204.777344 0.015625 L 204.777344 34.484375 L 0.207031 34.484375 Z M 0.207031 0.015625"/></clipPath><clipPath id="f0996e619c"><rect height="35" y="0" width="205" x="0"/></clipPath><clipPath id="f7c4f310f6"><path clip-rule="nonzero" d="M 736.199219 307.96875 L 770.671875 307.96875 L 770.671875 427.488281 L 736.199219 427.488281 Z M 736.199219 307.96875"/></clipPath><clipPath id="f6d9a03c02"><path clip-rule="nonzero" d="M 0.199219 0.96875 L 34.671875 0.96875 L 34.671875 120.488281 L 0.199219 120.488281 Z M 0.199219 0.96875"/></clipPath><clipPath id="e0a798dbc6"><rect height="121" y="0" width="35" x="0"/></clipPath><clipPath id="ab05cff6fe"><path clip-rule="nonzero" d="M 906.296875 393.015625 L 940.765625 393.015625 L 940.765625 512.535156 L 906.296875 512.535156 Z M 906.296875 393.015625"/></clipPath><clipPath id="a3a77dbc77"><path clip-rule="nonzero" d="M 0.296875 0.015625 L 34.765625 0.015625 L 34.765625 119.535156 L 0.296875 119.535156 Z M 0.296875 0.015625"/></clipPath><clipPath id="fd55987ab7"><rect height="120" y="0" width="35" x="0"/></clipPath><clipPath id="a9a20e7bad"><path clip-rule="nonzero" d="M 685.632812 478.0625 L 753.445312 478.0625 L 753.445312 512.535156 L 685.632812 512.535156 Z M 685.632812 478.0625"/></clipPath><clipPath id="e1885e9a61"><path clip-rule="nonzero" d="M 0.632812 0.0625 L 68.445312 0.0625 L 68.445312 34.535156 L 0.632812 34.535156 Z M 0.632812 0.0625"/></clipPath><clipPath id="a076c7b33f"><rect height="35" y="0" width="69" x="0"/></clipPath><clipPath id="24cd488197"><path clip-rule="nonzero" d="M 662.246094 295.320312 L 722.011719 295.320312 L 722.011719 355.082031 L 662.246094 355.082031 Z M 662.246094 295.320312"/></clipPath><clipPath id="77fd214fbf"><path clip-rule="nonzero" d="M 692.128906 295.320312 C 675.625 295.320312 662.246094 308.699219 662.246094 325.203125 C 662.246094 341.703125 675.625 355.082031 692.128906 355.082031 C 708.632812 355.082031 722.011719 341.703125 722.011719 325.203125 C 722.011719 308.699219 708.632812 295.320312 692.128906 295.320312 Z M 692.128906 295.320312"/></clipPath><clipPath id="7b34b7e8af"><path clip-rule="nonzero" d="M 0.246094 0.320312 L 60.011719 0.320312 L 60.011719 60.082031 L 0.246094 60.082031 Z M 0.246094 0.320312"/></clipPath><clipPath id="d3a327b323"><path clip-rule="nonzero" d="M 30.128906 0.320312 C 13.625 0.320312 0.246094 13.699219 0.246094 30.203125 C 0.246094 46.703125 13.625 60.082031 30.128906 60.082031 C 46.632812 60.082031 60.011719 46.703125 60.011719 30.203125 C 60.011719 13.699219 46.632812 0.320312 30.128906 0.320312 Z M 30.128906 0.320312"/></clipPath><clipPath id="ac247dee82"><rect height="61" y="0" width="61" x="0"/></clipPath><clipPath id="e7bab9df1c"><path clip-rule="nonzero" d="M 486.578125 295.320312 L 546.339844 295.320312 L 546.339844 355.082031 L 486.578125 355.082031 Z M 486.578125 295.320312"/></clipPath><clipPath id="15336296ac"><path clip-rule="nonzero" d="M 516.460938 295.320312 C 499.957031 295.320312 486.578125 308.699219 486.578125 325.203125 C 486.578125 341.703125 499.957031 355.082031 516.460938 355.082031 C 532.960938 355.082031 546.339844 341.703125 546.339844 325.203125 C 546.339844 308.699219 532.960938 295.320312 516.460938 295.320312 Z M 516.460938 295.320312"/></clipPath><clipPath id="b27eb6b653"><path clip-rule="nonzero" d="M 0.578125 0.320312 L 60.339844 0.320312 L 60.339844 60.082031 L 0.578125 60.082031 Z M 0.578125 0.320312"/></clipPath><clipPath id="c9deedf977"><path clip-rule="nonzero" d="M 30.460938 0.320312 C 13.957031 0.320312 0.578125 13.699219 0.578125 30.203125 C 0.578125 46.703125 13.957031 60.082031 30.460938 60.082031 C 46.960938 60.082031 60.339844 46.703125 60.339844 30.203125 C 60.339844 13.699219 46.960938 0.320312 30.460938 0.320312 Z M 30.460938 0.320312"/></clipPath><clipPath id="01f416dd34"><rect height="61" y="0" width="61" x="0"/></clipPath><clipPath id="6f7a540694"><path clip-rule="nonzero" d="M 486.578125 465.417969 L 546.339844 465.417969 L 546.339844 525.179688 L 486.578125 525.179688 Z M 486.578125 465.417969"/></clipPath><clipPath id="342cc9f99e"><path clip-rule="nonzero" d="M 516.460938 465.417969 C 499.957031 465.417969 486.578125 478.796875 486.578125 495.296875 C 486.578125 511.800781 499.957031 525.179688 516.460938 525.179688 C 532.960938 525.179688 546.339844 511.800781 546.339844 495.296875 C 546.339844 478.796875 532.960938 465.417969 516.460938 465.417969 Z M 516.460938 465.417969"/></clipPath><clipPath id="db6b62ffab"><path clip-rule="nonzero" d="M 0.578125 0.417969 L 60.339844 0.417969 L 60.339844 60.179688 L 0.578125 60.179688 Z M 0.578125 0.417969"/></clipPath><clipPath id="b36e76e208"><path clip-rule="nonzero" d="M 30.460938 0.417969 C 13.957031 0.417969 0.578125 13.796875 0.578125 30.296875 C 0.578125 46.800781 13.957031 60.179688 30.460938 60.179688 C 46.960938 60.179688 60.339844 46.800781 60.339844 30.296875 C 60.339844 13.796875 46.960938 0.417969 30.460938 0.417969 Z M 30.460938 0.417969"/></clipPath><clipPath id="8324e99c37"><rect height="61" y="0" width="61" x="0"/></clipPath><clipPath id="e295911b38"><path clip-rule="nonzero" d="M 689.65625 465.175781 L 749.417969 465.175781 L 749.417969 524.941406 L 689.65625 524.941406 Z M 689.65625 465.175781"/></clipPath><clipPath id="6400e2a429"><path clip-rule="nonzero" d="M 719.539062 465.175781 C 703.035156 465.175781 689.65625 478.554688 689.65625 495.058594 C 689.65625 511.5625 703.035156 524.941406 719.539062 524.941406 C 736.039062 524.941406 749.417969 511.5625 749.417969 495.058594 C 749.417969 478.554688 736.039062 465.175781 719.539062 465.175781 Z M 719.539062 465.175781"/></clipPath><clipPath id="1f7f64c8cd"><path clip-rule="nonzero" d="M 0.65625 0.175781 L 60.417969 0.175781 L 60.417969 59.941406 L 0.65625 59.941406 Z M 0.65625 0.175781"/></clipPath><clipPath id="5481139b48"><path clip-rule="nonzero" d="M 30.539062 0.175781 C 14.035156 0.175781 0.65625 13.554688 0.65625 30.058594 C 0.65625 46.5625 14.035156 59.941406 30.539062 59.941406 C 47.039062 59.941406 60.417969 46.5625 60.417969 30.058594 C 60.417969 13.554688 47.039062 0.175781 30.539062 0.175781 Z M 30.539062 0.175781"/></clipPath><clipPath id="bc3c5f5da0"><rect height="60" y="0" width="61" x="0"/></clipPath><clipPath id="f0b983f418"><path clip-rule="nonzero" d="M 893.660156 465.175781 L 953.421875 465.175781 L 953.421875 524.941406 L 893.660156 524.941406 Z M 893.660156 465.175781"/></clipPath><clipPath id="2bd12c7c0d"><path clip-rule="nonzero" d="M 923.539062 465.175781 C 907.039062 465.175781 893.660156 478.554688 893.660156 495.058594 C 893.660156 511.5625 907.039062 524.941406 923.539062 524.941406 C 940.042969 524.941406 953.421875 511.5625 953.421875 495.058594 C 953.421875 478.554688 940.042969 465.175781 923.539062 465.175781 Z M 923.539062 465.175781"/></clipPath><clipPath id="a764dddb64"><path clip-rule="nonzero" d="M 0.660156 0.175781 L 60.421875 0.175781 L 60.421875 59.941406 L 0.660156 59.941406 Z M 0.660156 0.175781"/></clipPath><clipPath id="13b046abf6"><path clip-rule="nonzero" d="M 30.539062 0.175781 C 14.039062 0.175781 0.660156 13.554688 0.660156 30.058594 C 0.660156 46.5625 14.039062 59.941406 30.539062 59.941406 C 47.042969 59.941406 60.421875 46.5625 60.421875 30.058594 C 60.421875 13.554688 47.042969 0.175781 30.539062 0.175781 Z M 30.539062 0.175781"/></clipPath><clipPath id="44b6378f06"><rect height="60" y="0" width="61" x="0"/></clipPath><clipPath id="502340b900"><path clip-rule="nonzero" d="M 893.660156 380.367188 L 953.421875 380.367188 L 953.421875 440.132812 L 893.660156 440.132812 Z M 893.660156 380.367188"/></clipPath><clipPath id="22685933a5"><path clip-rule="nonzero" d="M 923.539062 380.367188 C 907.039062 380.367188 893.660156 393.746094 893.660156 410.25 C 893.660156 426.753906 907.039062 440.132812 923.539062 440.132812 C 940.042969 440.132812 953.421875 426.753906 953.421875 410.25 C 953.421875 393.746094 940.042969 380.367188 923.539062 380.367188 Z M 923.539062 380.367188"/></clipPath><clipPath id="75c6bdf136"><path clip-rule="nonzero" d="M 0.660156 0.367188 L 60.421875 0.367188 L 60.421875 60.132812 L 0.660156 60.132812 Z M 0.660156 0.367188"/></clipPath><clipPath id="d17b435dd5"><path clip-rule="nonzero" d="M 30.539062 0.367188 C 14.039062 0.367188 0.660156 13.746094 0.660156 30.25 C 0.660156 46.753906 14.039062 60.132812 30.539062 60.132812 C 47.042969 60.132812 60.421875 46.753906 60.421875 30.25 C 60.421875 13.746094 47.042969 0.367188 30.539062 0.367188 Z M 30.539062 0.367188"/></clipPath><clipPath id="427310f72b"><rect height="61" y="0" width="61" x="0"/></clipPath><clipPath id="8f52aa4d7c"><path clip-rule="nonzero" d="M 908.800781 395.507812 L 938.28125 395.507812 L 938.28125 424.992188 L 908.800781 424.992188 Z M 908.800781 395.507812"/></clipPath><clipPath id="62ee5c2421"><path clip-rule="nonzero" d="M 923.539062 395.507812 C 915.398438 395.507812 908.800781 402.109375 908.800781 410.25 C 908.800781 418.390625 915.398438 424.992188 923.539062 424.992188 C 931.683594 424.992188 938.28125 418.390625 938.28125 410.25 C 938.28125 402.109375 931.683594 395.507812 923.539062 395.507812 Z M 923.539062 395.507812"/></clipPath><clipPath id="1b615b56ba"><path clip-rule="nonzero" d="M 0.800781 0.507812 L 30.28125 0.507812 L 30.28125 29.992188 L 0.800781 29.992188 Z M 0.800781 0.507812"/></clipPath><clipPath id="48ce008389"><path clip-rule="nonzero" d="M 15.539062 0.507812 C 7.398438 0.507812 0.800781 7.109375 0.800781 15.25 C 0.800781 23.390625 7.398438 29.992188 15.539062 29.992188 C 23.683594 29.992188 30.28125 23.390625 30.28125 15.25 C 30.28125 7.109375 23.683594 0.507812 15.539062 0.507812 Z M 15.539062 0.507812"/></clipPath><clipPath id="74b3aab988"><rect height="30" y="0" width="31" x="0"/></clipPath><clipPath id="7edb8a843e"><path clip-rule="nonzero" d="M 723.5625 380.367188 L 783.324219 380.367188 L 783.324219 440.132812 L 723.5625 440.132812 Z M 723.5625 380.367188"/></clipPath><clipPath id="b5ecfb9efc"><path clip-rule="nonzero" d="M 753.445312 380.367188 C 736.941406 380.367188 723.5625 393.746094 723.5625 410.25 C 723.5625 426.753906 736.941406 440.132812 753.445312 440.132812 C 769.945312 440.132812 783.324219 426.753906 783.324219 410.25 C 783.324219 393.746094 769.945312 380.367188 753.445312 380.367188 Z M 753.445312 380.367188"/></clipPath><clipPath id="1adfb87b3a"><path clip-rule="nonzero" d="M 0.5625 0.367188 L 60.324219 0.367188 L 60.324219 60.132812 L 0.5625 60.132812 Z M 0.5625 0.367188"/></clipPath><clipPath id="11765f428c"><path clip-rule="nonzero" d="M 30.445312 0.367188 C 13.941406 0.367188 0.5625 13.746094 0.5625 30.25 C 0.5625 46.753906 13.941406 60.132812 30.445312 60.132812 C 46.945312 60.132812 60.324219 46.753906 60.324219 30.25 C 60.324219 13.746094 46.945312 0.367188 30.445312 0.367188 Z M 30.445312 0.367188"/></clipPath><clipPath id="589e0e7f00"><rect height="61" y="0" width="61" x="0"/></clipPath><clipPath id="cc7211b3a7"><path clip-rule="nonzero" d="M 723.5625 295.320312 L 783.324219 295.320312 L 783.324219 355.082031 L 723.5625 355.082031 Z M 723.5625 295.320312"/></clipPath><clipPath id="c3981ae754"><path clip-rule="nonzero" d="M 753.445312 295.320312 C 736.941406 295.320312 723.5625 308.699219 723.5625 325.203125 C 723.5625 341.703125 736.941406 355.082031 753.445312 355.082031 C 769.945312 355.082031 783.324219 341.703125 783.324219 325.203125 C 783.324219 308.699219 769.945312 295.320312 753.445312 295.320312 Z M 753.445312 295.320312"/></clipPath><clipPath id="6b722acb4a"><path clip-rule="nonzero" d="M 0.5625 0.320312 L 60.324219 0.320312 L 60.324219 60.082031 L 0.5625 60.082031 Z M 0.5625 0.320312"/></clipPath><clipPath id="e94072d00f"><path clip-rule="nonzero" d="M 30.445312 0.320312 C 13.941406 0.320312 0.5625 13.699219 0.5625 30.203125 C 0.5625 46.703125 13.941406 60.082031 30.445312 60.082031 C 46.945312 60.082031 60.324219 46.703125 60.324219 30.203125 C 60.324219 13.699219 46.945312 0.320312 30.445312 0.320312 Z M 30.445312 0.320312"/></clipPath><clipPath id="2e3486e634"><rect height="61" y="0" width="61" x="0"/></clipPath><clipPath id="6097a89d81"><path clip-rule="nonzero" d="M 893.660156 295.320312 L 953.421875 295.320312 L 953.421875 355.082031 L 893.660156 355.082031 Z M 893.660156 295.320312"/></clipPath><clipPath id="37a9cd09c4"><path clip-rule="nonzero" d="M 923.539062 295.320312 C 907.039062 295.320312 893.660156 308.699219 893.660156 325.203125 C 893.660156 341.703125 907.039062 355.082031 923.539062 355.082031 C 940.042969 355.082031 953.421875 341.703125 953.421875 325.203125 C 953.421875 308.699219 940.042969 295.320312 923.539062 295.320312 Z M 923.539062 295.320312"/></clipPath><clipPath id="303dfa2368"><path clip-rule="nonzero" d="M 0.660156 0.320312 L 60.421875 0.320312 L 60.421875 60.082031 L 0.660156 60.082031 Z M 0.660156 0.320312"/></clipPath><clipPath id="f765cc090d"><path clip-rule="nonzero" d="M 30.539062 0.320312 C 14.039062 0.320312 0.660156 13.699219 0.660156 30.203125 C 0.660156 46.703125 14.039062 60.082031 30.539062 60.082031 C 47.042969 60.082031 60.421875 46.703125 60.421875 30.203125 C 60.421875 13.699219 47.042969 0.320312 30.539062 0.320312 Z M 30.539062 0.320312"/></clipPath><clipPath id="a61674b171"><rect height="61" y="0" width="61" x="0"/></clipPath><clipPath id="2d8c35bfec"><path clip-rule="nonzero" d="M 738.703125 395.507812 L 768.1875 395.507812 L 768.1875 424.992188 L 738.703125 424.992188 Z M 738.703125 395.507812"/></clipPath><clipPath id="d4d6469555"><path clip-rule="nonzero" d="M 753.445312 395.507812 C 745.300781 395.507812 738.703125 402.109375 738.703125 410.25 C 738.703125 418.390625 745.300781 424.992188 753.445312 424.992188 C 761.585938 424.992188 768.1875 418.390625 768.1875 410.25 C 768.1875 402.109375 761.585938 395.507812 753.445312 395.507812 Z M 753.445312 395.507812"/></clipPath><clipPath id="f268a5fd4c"><path clip-rule="nonzero" d="M 0.703125 0.507812 L 30.1875 0.507812 L 30.1875 29.992188 L 0.703125 29.992188 Z M 0.703125 0.507812"/></clipPath><clipPath id="f96d8cf4c0"><path clip-rule="nonzero" d="M 15.445312 0.507812 C 7.300781 0.507812 0.703125 7.109375 0.703125 15.25 C 0.703125 23.390625 7.300781 29.992188 15.445312 29.992188 C 23.585938 29.992188 30.1875 23.390625 30.1875 15.25 C 30.1875 7.109375 23.585938 0.507812 15.445312 0.507812 Z M 15.445312 0.507812"/></clipPath><clipPath id="13ff287c35"><rect height="30" y="0" width="31" x="0"/></clipPath><clipPath id="b5e25f51a9"><path clip-rule="nonzero" d="M 738.703125 310.460938 L 768.1875 310.460938 L 768.1875 339.941406 L 738.703125 339.941406 Z M 738.703125 310.460938"/></clipPath><clipPath id="824d3a6542"><path clip-rule="nonzero" d="M 753.445312 310.460938 C 745.300781 310.460938 738.703125 317.058594 738.703125 325.203125 C 738.703125 333.34375 745.300781 339.941406 753.445312 339.941406 C 761.585938 339.941406 768.1875 333.34375 768.1875 325.203125 C 768.1875 317.058594 761.585938 310.460938 753.445312 310.460938 Z M 753.445312 310.460938"/></clipPath><clipPath id="05a67e5510"><path clip-rule="nonzero" d="M 0.703125 0.460938 L 30.1875 0.460938 L 30.1875 29.941406 L 0.703125 29.941406 Z M 0.703125 0.460938"/></clipPath><clipPath id="ad794e1826"><path clip-rule="nonzero" d="M 15.445312 0.460938 C 7.300781 0.460938 0.703125 7.058594 0.703125 15.203125 C 0.703125 23.34375 7.300781 29.941406 15.445312 29.941406 C 23.585938 29.941406 30.1875 23.34375 30.1875 15.203125 C 30.1875 7.058594 23.585938 0.460938 15.445312 0.460938 Z M 15.445312 0.460938"/></clipPath><clipPath id="36fab39d27"><rect height="30" y="0" width="31" x="0"/></clipPath><clipPath id="855c7da19b"><path clip-rule="nonzero" d="M 676.402344 310.460938 L 705.886719 310.460938 L 705.886719 339.941406 L 676.402344 339.941406 Z M 676.402344 310.460938"/></clipPath><clipPath id="b13635fe76"><path clip-rule="nonzero" d="M 691.144531 310.460938 C 683.003906 310.460938 676.402344 317.058594 676.402344 325.203125 C 676.402344 333.34375 683.003906 339.941406 691.144531 339.941406 C 699.285156 339.941406 705.886719 333.34375 705.886719 325.203125 C 705.886719 317.058594 699.285156 310.460938 691.144531 310.460938 Z M 691.144531 310.460938"/></clipPath><clipPath id="1c9a8082e7"><path clip-rule="nonzero" d="M 0.402344 0.460938 L 29.886719 0.460938 L 29.886719 29.941406 L 0.402344 29.941406 Z M 0.402344 0.460938"/></clipPath><clipPath id="0c534bcad5"><path clip-rule="nonzero" d="M 15.144531 0.460938 C 7.003906 0.460938 0.402344 7.058594 0.402344 15.203125 C 0.402344 23.34375 7.003906 29.941406 15.144531 29.941406 C 23.285156 29.941406 29.886719 23.34375 29.886719 15.203125 C 29.886719 7.058594 23.285156 0.460938 15.144531 0.460938 Z M 15.144531 0.460938"/></clipPath><clipPath id="5602e65c6c"><rect height="30" y="0" width="30" x="0"/></clipPath><clipPath id="978798c031"><path clip-rule="nonzero" d="M 501.71875 310.460938 L 531.199219 310.460938 L 531.199219 339.941406 L 501.71875 339.941406 Z M 501.71875 310.460938"/></clipPath><clipPath id="5363bf69ca"><path clip-rule="nonzero" d="M 516.460938 310.460938 C 508.316406 310.460938 501.71875 317.058594 501.71875 325.203125 C 501.71875 333.34375 508.316406 339.941406 516.460938 339.941406 C 524.601562 339.941406 531.199219 333.34375 531.199219 325.203125 C 531.199219 317.058594 524.601562 310.460938 516.460938 310.460938 Z M 516.460938 310.460938"/></clipPath><clipPath id="5d1d41798e"><path clip-rule="nonzero" d="M 0.71875 0.460938 L 30.199219 0.460938 L 30.199219 29.941406 L 0.71875 29.941406 Z M 0.71875 0.460938"/></clipPath><clipPath id="9808dbe16e"><path clip-rule="nonzero" d="M 15.460938 0.460938 C 7.316406 0.460938 0.71875 7.058594 0.71875 15.203125 C 0.71875 23.34375 7.316406 29.941406 15.460938 29.941406 C 23.601562 29.941406 30.199219 23.34375 30.199219 15.203125 C 30.199219 7.058594 23.601562 0.460938 15.460938 0.460938 Z M 15.460938 0.460938"/></clipPath><clipPath id="4a804e52d3"><rect height="30" y="0" width="31" x="0"/></clipPath><clipPath id="522f7abcb9"><path clip-rule="nonzero" d="M 501.71875 480.558594 L 531.199219 480.558594 L 531.199219 510.039062 L 501.71875 510.039062 Z M 501.71875 480.558594"/></clipPath><clipPath id="2e6ab65669"><path clip-rule="nonzero" d="M 516.460938 480.558594 C 508.316406 480.558594 501.71875 487.15625 501.71875 495.296875 C 501.71875 503.441406 508.316406 510.039062 516.460938 510.039062 C 524.601562 510.039062 531.199219 503.441406 531.199219 495.296875 C 531.199219 487.15625 524.601562 480.558594 516.460938 480.558594 Z M 516.460938 480.558594"/></clipPath><clipPath id="9e2dd21b69"><path clip-rule="nonzero" d="M 0.71875 0.558594 L 30.199219 0.558594 L 30.199219 30.039062 L 0.71875 30.039062 Z M 0.71875 0.558594"/></clipPath><clipPath id="84e6471b79"><path clip-rule="nonzero" d="M 15.460938 0.558594 C 7.316406 0.558594 0.71875 7.15625 0.71875 15.296875 C 0.71875 23.441406 7.316406 30.039062 15.460938 30.039062 C 23.601562 30.039062 30.199219 23.441406 30.199219 15.296875 C 30.199219 7.15625 23.601562 0.558594 15.460938 0.558594 Z M 15.460938 0.558594"/></clipPath><clipPath id="1fdf7fc94b"><rect height="31" y="0" width="31" x="0"/></clipPath><clipPath id="b431f0744e"><path clip-rule="nonzero" d="M 704.796875 480.558594 L 734.277344 480.558594 L 734.277344 510.039062 L 704.796875 510.039062 Z M 704.796875 480.558594"/></clipPath><clipPath id="a23298c1c2"><path clip-rule="nonzero" d="M 719.539062 480.558594 C 711.394531 480.558594 704.796875 487.15625 704.796875 495.296875 C 704.796875 503.441406 711.394531 510.039062 719.539062 510.039062 C 727.679688 510.039062 734.277344 503.441406 734.277344 495.296875 C 734.277344 487.15625 727.679688 480.558594 719.539062 480.558594 Z M 719.539062 480.558594"/></clipPath><clipPath id="c52ccf3d02"><path clip-rule="nonzero" d="M 0.796875 0.558594 L 30.277344 0.558594 L 30.277344 30.039062 L 0.796875 30.039062 Z M 0.796875 0.558594"/></clipPath><clipPath id="dbc16d905b"><path clip-rule="nonzero" d="M 15.539062 0.558594 C 7.394531 0.558594 0.796875 7.15625 0.796875 15.296875 C 0.796875 23.441406 7.394531 30.039062 15.539062 30.039062 C 23.679688 30.039062 30.277344 23.441406 30.277344 15.296875 C 30.277344 7.15625 23.679688 0.558594 15.539062 0.558594 Z M 15.539062 0.558594"/></clipPath><clipPath id="5904d152ec"><rect height="31" y="0" width="31" x="0"/></clipPath><clipPath id="3e84a3005f"><path clip-rule="nonzero" d="M 908.800781 480.558594 L 938.28125 480.558594 L 938.28125 510.039062 L 908.800781 510.039062 Z M 908.800781 480.558594"/></clipPath><clipPath id="4a3da50494"><path clip-rule="nonzero" d="M 923.539062 480.558594 C 915.398438 480.558594 908.800781 487.15625 908.800781 495.296875 C 908.800781 503.441406 915.398438 510.039062 923.539062 510.039062 C 931.683594 510.039062 938.28125 503.441406 938.28125 495.296875 C 938.28125 487.15625 931.683594 480.558594 923.539062 480.558594 Z M 923.539062 480.558594"/></clipPath><clipPath id="27bdd8817e"><path clip-rule="nonzero" d="M 0.800781 0.558594 L 30.28125 0.558594 L 30.28125 30.039062 L 0.800781 30.039062 Z M 0.800781 0.558594"/></clipPath><clipPath id="ab00a89229"><path clip-rule="nonzero" d="M 15.539062 0.558594 C 7.398438 0.558594 0.800781 7.15625 0.800781 15.296875 C 0.800781 23.441406 7.398438 30.039062 15.539062 30.039062 C 23.683594 30.039062 30.28125 23.441406 30.28125 15.296875 C 30.28125 7.15625 23.683594 0.558594 15.539062 0.558594 Z M 15.539062 0.558594"/></clipPath><clipPath id="39e7beb6b8"><rect height="31" y="0" width="31" x="0"/></clipPath><clipPath id="c2dc62905b"><path clip-rule="nonzero" d="M 908.800781 310.460938 L 938.28125 310.460938 L 938.28125 339.941406 L 908.800781 339.941406 Z M 908.800781 310.460938"/></clipPath><clipPath id="cf08930b59"><path clip-rule="nonzero" d="M 923.539062 310.460938 C 915.398438 310.460938 908.800781 317.058594 908.800781 325.203125 C 908.800781 333.34375 915.398438 339.941406 923.539062 339.941406 C 931.683594 339.941406 938.28125 333.34375 938.28125 325.203125 C 938.28125 317.058594 931.683594 310.460938 923.539062 310.460938 Z M 923.539062 310.460938"/></clipPath><clipPath id="567aa254ac"><path clip-rule="nonzero" d="M 0.800781 0.460938 L 30.28125 0.460938 L 30.28125 29.941406 L 0.800781 29.941406 Z M 0.800781 0.460938"/></clipPath><clipPath id="1f2f600ffb"><path clip-rule="nonzero" d="M 15.539062 0.460938 C 7.398438 0.460938 0.800781 7.058594 0.800781 15.203125 C 0.800781 23.34375 7.398438 29.941406 15.539062 29.941406 C 23.683594 29.941406 30.28125 23.34375 30.28125 15.203125 C 30.28125 7.058594 23.683594 0.460938 15.539062 0.460938 Z M 15.539062 0.460938"/></clipPath><clipPath id="893b6da8dd"><rect height="30" y="0" width="31" x="0"/></clipPath><clipPath id="6d94e42095"><path clip-rule="nonzero" d="M 510.304688 319.050781 L 522.613281 319.050781 L 522.613281 331.355469 L 510.304688 331.355469 Z M 510.304688 319.050781"/></clipPath><clipPath id="d74bd11427"><path clip-rule="nonzero" d="M 516.460938 319.050781 C 513.0625 319.050781 510.304688 321.804688 510.304688 325.203125 C 510.304688 328.601562 513.0625 331.355469 516.460938 331.355469 C 519.855469 331.355469 522.613281 328.601562 522.613281 325.203125 C 522.613281 321.804688 519.855469 319.050781 516.460938 319.050781 Z M 516.460938 319.050781"/></clipPath><clipPath id="7e2644ec95"><path clip-rule="nonzero" d="M 0.304688 0.0507812 L 12.613281 0.0507812 L 12.613281 12.355469 L 0.304688 12.355469 Z M 0.304688 0.0507812"/></clipPath><clipPath id="e3ad4b71dd"><path clip-rule="nonzero" d="M 6.460938 0.0507812 C 3.0625 0.0507812 0.304688 2.804688 0.304688 6.203125 C 0.304688 9.601562 3.0625 12.355469 6.460938 12.355469 C 9.855469 12.355469 12.613281 9.601562 12.613281 6.203125 C 12.613281 2.804688 9.855469 0.0507812 6.460938 0.0507812 Z M 6.460938 0.0507812"/></clipPath><clipPath id="5f10da11af"><rect height="13" y="0" width="13" x="0"/></clipPath><clipPath id="158c8c59fb"><path clip-rule="nonzero" d="M 684.992188 319.050781 L 697.296875 319.050781 L 697.296875 331.355469 L 684.992188 331.355469 Z M 684.992188 319.050781"/></clipPath><clipPath id="8e13d52080"><path clip-rule="nonzero" d="M 691.144531 319.050781 C 687.746094 319.050781 684.992188 321.804688 684.992188 325.203125 C 684.992188 328.601562 687.746094 331.355469 691.144531 331.355469 C 694.542969 331.355469 697.296875 328.601562 697.296875 325.203125 C 697.296875 321.804688 694.542969 319.050781 691.144531 319.050781 Z M 691.144531 319.050781"/></clipPath><clipPath id="37d4883c94"><path clip-rule="nonzero" d="M 0.992188 0.0507812 L 13.296875 0.0507812 L 13.296875 12.355469 L 0.992188 12.355469 Z M 0.992188 0.0507812"/></clipPath><clipPath id="7996e22c1b"><path clip-rule="nonzero" d="M 7.144531 0.0507812 C 3.746094 0.0507812 0.992188 2.804688 0.992188 6.203125 C 0.992188 9.601562 3.746094 12.355469 7.144531 12.355469 C 10.542969 12.355469 13.296875 9.601562 13.296875 6.203125 C 13.296875 2.804688 10.542969 0.0507812 7.144531 0.0507812 Z M 7.144531 0.0507812"/></clipPath><clipPath id="1d6b2ff4ac"><rect height="13" y="0" width="14" x="0"/></clipPath><clipPath id="70c726340f"><path clip-rule="nonzero" d="M 510.304688 489.144531 L 522.613281 489.144531 L 522.613281 501.449219 L 510.304688 501.449219 Z M 510.304688 489.144531"/></clipPath><clipPath id="2f2cc4204e"><path clip-rule="nonzero" d="M 516.460938 489.144531 C 513.0625 489.144531 510.304688 491.898438 510.304688 495.296875 C 510.304688 498.695312 513.0625 501.449219 516.460938 501.449219 C 519.855469 501.449219 522.613281 498.695312 522.613281 495.296875 C 522.613281 491.898438 519.855469 489.144531 516.460938 489.144531 Z M 516.460938 489.144531"/></clipPath><clipPath id="999f031ab8"><path clip-rule="nonzero" d="M 0.304688 0.144531 L 12.613281 0.144531 L 12.613281 12.449219 L 0.304688 12.449219 Z M 0.304688 0.144531"/></clipPath><clipPath id="99f99e8e4d"><path clip-rule="nonzero" d="M 6.460938 0.144531 C 3.0625 0.144531 0.304688 2.898438 0.304688 6.296875 C 0.304688 9.695312 3.0625 12.449219 6.460938 12.449219 C 9.855469 12.449219 12.613281 9.695312 12.613281 6.296875 C 12.613281 2.898438 9.855469 0.144531 6.460938 0.144531 Z M 6.460938 0.144531"/></clipPath><clipPath id="0822f396ad"><rect height="13" y="0" width="13" x="0"/></clipPath><clipPath id="9fef8590bb"><path clip-rule="nonzero" d="M 713.386719 489.144531 L 725.691406 489.144531 L 725.691406 501.449219 L 713.386719 501.449219 Z M 713.386719 489.144531"/></clipPath><clipPath id="61ed5595a0"><path clip-rule="nonzero" d="M 719.539062 489.144531 C 716.140625 489.144531 713.386719 491.898438 713.386719 495.296875 C 713.386719 498.695312 716.140625 501.449219 719.539062 501.449219 C 722.9375 501.449219 725.691406 498.695312 725.691406 495.296875 C 725.691406 491.898438 722.9375 489.144531 719.539062 489.144531 Z M 719.539062 489.144531"/></clipPath><clipPath id="6095121f09"><path clip-rule="nonzero" d="M 0.386719 0.144531 L 12.691406 0.144531 L 12.691406 12.449219 L 0.386719 12.449219 Z M 0.386719 0.144531"/></clipPath><clipPath id="21bcc123ff"><path clip-rule="nonzero" d="M 6.539062 0.144531 C 3.140625 0.144531 0.386719 2.898438 0.386719 6.296875 C 0.386719 9.695312 3.140625 12.449219 6.539062 12.449219 C 9.9375 12.449219 12.691406 9.695312 12.691406 6.296875 C 12.691406 2.898438 9.9375 0.144531 6.539062 0.144531 Z M 6.539062 0.144531"/></clipPath><clipPath id="58ecc5882f"><rect height="13" y="0" width="13" x="0"/></clipPath><clipPath id="3b14e40c7e"><path clip-rule="nonzero" d="M 917.386719 489.144531 L 929.695312 489.144531 L 929.695312 501.449219 L 917.386719 501.449219 Z M 917.386719 489.144531"/></clipPath><clipPath id="2204fbc773"><path clip-rule="nonzero" d="M 923.539062 489.144531 C 920.144531 489.144531 917.386719 491.898438 917.386719 495.296875 C 917.386719 498.695312 920.144531 501.449219 923.539062 501.449219 C 926.9375 501.449219 929.695312 498.695312 929.695312 495.296875 C 929.695312 491.898438 926.9375 489.144531 923.539062 489.144531 Z M 923.539062 489.144531"/></clipPath><clipPath id="341c2fac20"><path clip-rule="nonzero" d="M 0.386719 0.144531 L 12.695312 0.144531 L 12.695312 12.449219 L 0.386719 12.449219 Z M 0.386719 0.144531"/></clipPath><clipPath id="e939184ad0"><path clip-rule="nonzero" d="M 6.539062 0.144531 C 3.144531 0.144531 0.386719 2.898438 0.386719 6.296875 C 0.386719 9.695312 3.144531 12.449219 6.539062 12.449219 C 9.9375 12.449219 12.695312 9.695312 12.695312 6.296875 C 12.695312 2.898438 9.9375 0.144531 6.539062 0.144531 Z M 6.539062 0.144531"/></clipPath><clipPath id="c2e99b41c3"><rect height="13" y="0" width="13" x="0"/></clipPath><clipPath id="7391a150ce"><path clip-rule="nonzero" d="M 917.386719 404.097656 L 929.695312 404.097656 L 929.695312 416.402344 L 917.386719 416.402344 Z M 917.386719 404.097656"/></clipPath><clipPath id="bea6a7162f"><path clip-rule="nonzero" d="M 923.539062 404.097656 C 920.144531 404.097656 917.386719 406.851562 917.386719 410.25 C 917.386719 413.648438 920.144531 416.402344 923.539062 416.402344 C 926.9375 416.402344 929.695312 413.648438 929.695312 410.25 C 929.695312 406.851562 926.9375 404.097656 923.539062 404.097656 Z M 923.539062 404.097656"/></clipPath><clipPath id="b0855110cb"><path clip-rule="nonzero" d="M 0.386719 0.0976562 L 12.695312 0.0976562 L 12.695312 12.402344 L 0.386719 12.402344 Z M 0.386719 0.0976562"/></clipPath><clipPath id="aa5a2b034d"><path clip-rule="nonzero" d="M 6.539062 0.0976562 C 3.144531 0.0976562 0.386719 2.851562 0.386719 6.25 C 0.386719 9.648438 3.144531 12.402344 6.539062 12.402344 C 9.9375 12.402344 12.695312 9.648438 12.695312 6.25 C 12.695312 2.851562 9.9375 0.0976562 6.539062 0.0976562 Z M 6.539062 0.0976562"/></clipPath><clipPath id="a5c1cb8261"><rect height="13" y="0" width="13" x="0"/></clipPath><clipPath id="4c61c0ea46"><path clip-rule="nonzero" d="M 747.292969 404.097656 L 759.597656 404.097656 L 759.597656 416.402344 L 747.292969 416.402344 Z M 747.292969 404.097656"/></clipPath><clipPath id="7bfdaabb6e"><path clip-rule="nonzero" d="M 753.445312 404.097656 C 750.046875 404.097656 747.292969 406.851562 747.292969 410.25 C 747.292969 413.648438 750.046875 416.402344 753.445312 416.402344 C 756.84375 416.402344 759.597656 413.648438 759.597656 410.25 C 759.597656 406.851562 756.84375 404.097656 753.445312 404.097656 Z M 753.445312 404.097656"/></clipPath><clipPath id="78de8e892c"><path clip-rule="nonzero" d="M 0.292969 0.0976562 L 12.597656 0.0976562 L 12.597656 12.402344 L 0.292969 12.402344 Z M 0.292969 0.0976562"/></clipPath><clipPath id="f0a14f8e38"><path clip-rule="nonzero" d="M 6.445312 0.0976562 C 3.046875 0.0976562 0.292969 2.851562 0.292969 6.25 C 0.292969 9.648438 3.046875 12.402344 6.445312 12.402344 C 9.84375 12.402344 12.597656 9.648438 12.597656 6.25 C 12.597656 2.851562 9.84375 0.0976562 6.445312 0.0976562 Z M 6.445312 0.0976562"/></clipPath><clipPath id="49c659edd8"><rect height="13" y="0" width="13" x="0"/></clipPath><clipPath id="e6464a46fd"><path clip-rule="nonzero" d="M 747.292969 319.050781 L 759.597656 319.050781 L 759.597656 331.355469 L 747.292969 331.355469 Z M 747.292969 319.050781"/></clipPath><clipPath id="19879655a2"><path clip-rule="nonzero" d="M 753.445312 319.050781 C 750.046875 319.050781 747.292969 321.804688 747.292969 325.203125 C 747.292969 328.601562 750.046875 331.355469 753.445312 331.355469 C 756.84375 331.355469 759.597656 328.601562 759.597656 325.203125 C 759.597656 321.804688 756.84375 319.050781 753.445312 319.050781 Z M 753.445312 319.050781"/></clipPath><clipPath id="cc14ac105f"><path clip-rule="nonzero" d="M 0.292969 0.0507812 L 12.597656 0.0507812 L 12.597656 12.355469 L 0.292969 12.355469 Z M 0.292969 0.0507812"/></clipPath><clipPath id="e8812b94f5"><path clip-rule="nonzero" d="M 6.445312 0.0507812 C 3.046875 0.0507812 0.292969 2.804688 0.292969 6.203125 C 0.292969 9.601562 3.046875 12.355469 6.445312 12.355469 C 9.84375 12.355469 12.597656 9.601562 12.597656 6.203125 C 12.597656 2.804688 9.84375 0.0507812 6.445312 0.0507812 Z M 6.445312 0.0507812"/></clipPath><clipPath id="506570c2fb"><rect height="13" y="0" width="13" x="0"/></clipPath><clipPath id="6191f9331c"><path clip-rule="nonzero" d="M 917.386719 319.050781 L 929.695312 319.050781 L 929.695312 331.355469 L 917.386719 331.355469 Z M 917.386719 319.050781"/></clipPath><clipPath id="f07a001a6a"><path clip-rule="nonzero" d="M 923.539062 319.050781 C 920.144531 319.050781 917.386719 321.804688 917.386719 325.203125 C 917.386719 328.601562 920.144531 331.355469 923.539062 331.355469 C 926.9375 331.355469 929.695312 328.601562 929.695312 325.203125 C 929.695312 321.804688 926.9375 319.050781 923.539062 319.050781 Z M 923.539062 319.050781"/></clipPath><clipPath id="785e4fc7d9"><path clip-rule="nonzero" d="M 0.386719 0.0507812 L 12.695312 0.0507812 L 12.695312 12.355469 L 0.386719 12.355469 Z M 0.386719 0.0507812"/></clipPath><clipPath id="fc364505cd"><path clip-rule="nonzero" d="M 6.539062 0.0507812 C 3.144531 0.0507812 0.386719 2.804688 0.386719 6.203125 C 0.386719 9.601562 3.144531 12.355469 6.539062 12.355469 C 9.9375 12.355469 12.695312 9.601562 12.695312 6.203125 C 12.695312 2.804688 9.9375 0.0507812 6.539062 0.0507812 Z M 6.539062 0.0507812"/></clipPath><clipPath id="3f80274112"><rect height="13" y="0" width="13" x="0"/></clipPath></defs><g clip-path="url(#ac67197bd3)"><g clip-path="url(#40ed174606)"><g transform="matrix(1, 0, 0, 1, 452, 137)"><g clip-path="url(#d0a62b9e51)"><g clip-path="url(#265a0cbd19)"><g clip-path="url(#fd25e9c0e2)"><path fill-rule="nonzero" fill-opacity="1" d="M 0.726562 0.675781 L 534.351562 0.675781 L 534.351562 534.300781 L 0.726562 534.300781 Z M 0.726562 0.675781" fill="#ffffff"/></g></g></g></g><path stroke-miterlimit="4" stroke-opacity="1" stroke-width="2" stroke="#000000" d="M 355.751889 0.0011885 C 159.272712 0.0011885 0.00187074 159.277238 0.00187074 355.751206 C 0.00187074 552.225175 159.272712 711.501224 355.751889 711.501224 C 552.225857 711.501224 711.501907 552.225175 711.501907 355.751206 C 711.501907 159.277238 552.225857 0.0011885 355.751889 0.0011885 Z M 355.751889 0.0011885" stroke-linejoin="miter" fill="none" transform="matrix(0.75, 0, 0, 0.75, 452.725159, 137.67489)" stroke-linecap="butt"/></g></g><g clip-path="url(#e19c4a8805)"><g transform="matrix(1, 0, 0, 1, 499, 478)"><g clip-path="url(#c14e266c84)"><g clip-path="url(#5badf49821)"><path fill-rule="nonzero" fill-opacity="1" d="M 0.222656 0.0625 L 204.761719 0.0625 L 204.761719 34.535156 L 0.222656 34.535156 Z M 0.222656 0.0625" fill="#000000"/></g></g></g></g><g clip-path="url(#14cca95119)"><g transform="matrix(1, 0, 0, 1, 499, 307)"><g clip-path="url(#977c34265f)"><g clip-path="url(#12fa237c60)"><path fill-rule="nonzero" fill-opacity="1" d="M 0.222656 0.964844 L 204.761719 0.964844 L 204.761719 35.4375 L 0.222656 35.4375 Z M 0.222656 0.964844" fill="#000000"/></g></g></g></g><g clip-path="url(#ac40dbdc7a)"><g transform="matrix(1, 0, 0, 1, 499, 307)"><g clip-path="url(#6824e1d31d)"><g clip-path="url(#57846cca0a)"><path fill-rule="nonzero" fill-opacity="1" d="M 34.6875 0.964844 L 34.6875 205.503906 L 0.21875 205.503906 L 0.21875 0.964844 Z M 34.6875 0.964844" fill="#000000"/></g></g></g></g><g clip-path="url(#4dba071e0d)"><g transform="matrix(1, 0, 0, 1, 736, 478)"><g clip-path="url(#134e0b2e03)"><g clip-path="url(#32fc1e3de7)"><path fill-rule="nonzero" fill-opacity="1" d="M 0.207031 0.0625 L 204.746094 0.0625 L 204.746094 34.535156 L 0.207031 34.535156 Z M 0.207031 0.0625" fill="#000000"/></g></g></g></g><g clip-path="url(#6e2d2456d2)"><g transform="matrix(1, 0, 0, 1, 736, 307)"><g clip-path="url(#313c50e628)"><g clip-path="url(#1c9b869f59)"><path fill-rule="nonzero" fill-opacity="1" d="M 0.207031 0.964844 L 204.746094 0.964844 L 204.746094 35.4375 L 0.207031 35.4375 Z M 0.207031 0.964844" fill="#000000"/></g></g></g></g><g clip-path="url(#84a21d5139)"><g transform="matrix(1, 0, 0, 1, 736, 393)"><g clip-path="url(#f0996e619c)"><g clip-path="url(#a9cd778dab)"><path fill-rule="nonzero" fill-opacity="1" d="M 0.207031 0.015625 L 204.746094 0.015625 L 204.746094 34.484375 L 0.207031 34.484375 Z M 0.207031 0.015625" fill="#000000"/></g></g></g></g><g clip-path="url(#f7c4f310f6)"><g transform="matrix(1, 0, 0, 1, 736, 307)"><g clip-path="url(#e0a798dbc6)"><g clip-path="url(#f6d9a03c02)"><path fill-rule="nonzero" fill-opacity="1" d="M 34.671875 0.96875 L 34.671875 120.539062 L 0.199219 120.539062 L 0.199219 0.96875 Z M 34.671875 0.96875" fill="#000000"/></g></g></g></g><g clip-path="url(#ab05cff6fe)"><g transform="matrix(1, 0, 0, 1, 906, 393)"><g clip-path="url(#fd55987ab7)"><g clip-path="url(#a3a77dbc77)"><path fill-rule="nonzero" fill-opacity="1" d="M 34.765625 0.015625 L 34.765625 119.589844 L 0.296875 119.589844 L 0.296875 0.015625 Z M 34.765625 0.015625" fill="#000000"/></g></g></g></g><g clip-path="url(#a9a20e7bad)"><g transform="matrix(1, 0, 0, 1, 685, 478)"><g clip-path="url(#a076c7b33f)"><g clip-path="url(#e1885e9a61)"><path fill-rule="nonzero" fill-opacity="1" d="M 0.632812 0.0625 L 68.496094 0.0625 L 68.496094 34.535156 L 0.632812 34.535156 Z M 0.632812 0.0625" fill="#000000"/></g></g></g></g><g clip-path="url(#24cd488197)"><g clip-path="url(#77fd214fbf)"><g transform="matrix(1, 0, 0, 1, 662, 295)"><g clip-path="url(#ac247dee82)"><g clip-path="url(#7b34b7e8af)"><g clip-path="url(#d3a327b323)"><path fill-rule="nonzero" fill-opacity="1" d="M 0.246094 0.320312 L 60.011719 0.320312 L 60.011719 60.082031 L 0.246094 60.082031 Z M 0.246094 0.320312" fill="#000000"/></g></g></g></g></g></g><g clip-path="url(#e7bab9df1c)"><g clip-path="url(#15336296ac)"><g transform="matrix(1, 0, 0, 1, 486, 295)"><g clip-path="url(#01f416dd34)"><g clip-path="url(#b27eb6b653)"><g clip-path="url(#c9deedf977)"><path fill-rule="nonzero" fill-opacity="1" d="M 0.578125 0.320312 L 60.339844 0.320312 L 60.339844 60.082031 L 0.578125 60.082031 Z M 0.578125 0.320312" fill="#000000"/></g></g></g></g></g></g><g clip-path="url(#6f7a540694)"><g clip-path="url(#342cc9f99e)"><g transform="matrix(1, 0, 0, 1, 486, 465)"><g clip-path="url(#8324e99c37)"><g clip-path="url(#db6b62ffab)"><g clip-path="url(#b36e76e208)"><path fill-rule="nonzero" fill-opacity="1" d="M 0.578125 0.417969 L 60.339844 0.417969 L 60.339844 60.179688 L 0.578125 60.179688 Z M 0.578125 0.417969" fill="#000000"/></g></g></g></g></g></g><g clip-path="url(#e295911b38)"><g clip-path="url(#6400e2a429)"><g transform="matrix(1, 0, 0, 1, 689, 465)"><g clip-path="url(#bc3c5f5da0)"><g clip-path="url(#1f7f64c8cd)"><g clip-path="url(#5481139b48)"><path fill-rule="nonzero" fill-opacity="1" d="M 0.65625 0.175781 L 60.417969 0.175781 L 60.417969 59.941406 L 0.65625 59.941406 Z M 0.65625 0.175781" fill="#000000"/></g></g></g></g></g></g><g clip-path="url(#f0b983f418)"><g clip-path="url(#2bd12c7c0d)"><g transform="matrix(1, 0, 0, 1, 893, 465)"><g clip-path="url(#44b6378f06)"><g clip-path="url(#a764dddb64)"><g clip-path="url(#13b046abf6)"><path fill-rule="nonzero" fill-opacity="1" d="M 0.660156 0.175781 L 60.421875 0.175781 L 60.421875 59.941406 L 0.660156 59.941406 Z M 0.660156 0.175781" fill="#000000"/></g></g></g></g></g></g><g clip-path="url(#502340b900)"><g clip-path="url(#22685933a5)"><g transform="matrix(1, 0, 0, 1, 893, 380)"><g clip-path="url(#427310f72b)"><g clip-path="url(#75c6bdf136)"><g clip-path="url(#d17b435dd5)"><path fill-rule="nonzero" fill-opacity="1" d="M 0.660156 0.367188 L 60.421875 0.367188 L 60.421875 60.132812 L 0.660156 60.132812 Z M 0.660156 0.367188" fill="#000000"/></g></g></g></g></g></g><g clip-path="url(#8f52aa4d7c)"><g clip-path="url(#62ee5c2421)"><g transform="matrix(1, 0, 0, 1, 908, 395)"><g clip-path="url(#74b3aab988)"><g clip-path="url(#1b615b56ba)"><g clip-path="url(#48ce008389)"><path fill-rule="nonzero" fill-opacity="1" d="M 0.800781 0.507812 L 30.28125 0.507812 L 30.28125 29.992188 L 0.800781 29.992188 Z M 0.800781 0.507812" fill="#726ee0"/></g></g></g></g></g></g><g clip-path="url(#7edb8a843e)"><g clip-path="url(#b5ecfb9efc)"><g transform="matrix(1, 0, 0, 1, 723, 380)"><g clip-path="url(#589e0e7f00)"><g clip-path="url(#1adfb87b3a)"><g clip-path="url(#11765f428c)"><path fill-rule="nonzero" fill-opacity="1" d="M 0.5625 0.367188 L 60.324219 0.367188 L 60.324219 60.132812 L 0.5625 60.132812 Z M 0.5625 0.367188" fill="#000000"/></g></g></g></g></g></g><g clip-path="url(#cc7211b3a7)"><g clip-path="url(#c3981ae754)"><g transform="matrix(1, 0, 0, 1, 723, 295)"><g clip-path="url(#2e3486e634)"><g clip-path="url(#6b722acb4a)"><g clip-path="url(#e94072d00f)"><path fill-rule="nonzero" fill-opacity="1" d="M 0.5625 0.320312 L 60.324219 0.320312 L 60.324219 60.082031 L 0.5625 60.082031 Z M 0.5625 0.320312" fill="#000000"/></g></g></g></g></g></g><g clip-path="url(#6097a89d81)"><g clip-path="url(#37a9cd09c4)"><g transform="matrix(1, 0, 0, 1, 893, 295)"><g clip-path="url(#a61674b171)"><g clip-path="url(#303dfa2368)"><g clip-path="url(#f765cc090d)"><path fill-rule="nonzero" fill-opacity="1" d="M 0.660156 0.320312 L 60.421875 0.320312 L 60.421875 60.082031 L 0.660156 60.082031 Z M 0.660156 0.320312" fill="#000000"/></g></g></g></g></g></g><g clip-path="url(#2d8c35bfec)"><g clip-path="url(#d4d6469555)"><g transform="matrix(1, 0, 0, 1, 738, 395)"><g clip-path="url(#13ff287c35)"><g clip-path="url(#f268a5fd4c)"><g clip-path="url(#f96d8cf4c0)"><path fill-rule="nonzero" fill-opacity="1" d="M 0.703125 0.507812 L 30.1875 0.507812 L 30.1875 29.992188 L 0.703125 29.992188 Z M 0.703125 0.507812" fill="#726ee0"/></g></g></g></g></g></g><g clip-path="url(#b5e25f51a9)"><g clip-path="url(#824d3a6542)"><g transform="matrix(1, 0, 0, 1, 738, 310)"><g clip-path="url(#36fab39d27)"><g clip-path="url(#05a67e5510)"><g clip-path="url(#ad794e1826)"><path fill-rule="nonzero" fill-opacity="1" d="M 0.703125 0.460938 L 30.1875 0.460938 L 30.1875 29.941406 L 0.703125 29.941406 Z M 0.703125 0.460938" fill="#726ee0"/></g></g></g></g></g></g><g clip-path="url(#855c7da19b)"><g clip-path="url(#b13635fe76)"><g transform="matrix(1, 0, 0, 1, 676, 310)"><g clip-path="url(#5602e65c6c)"><g clip-path="url(#1c9a8082e7)"><g clip-path="url(#0c534bcad5)"><path fill-rule="nonzero" fill-opacity="1" d="M 0.402344 0.460938 L 29.886719 0.460938 L 29.886719 29.941406 L 0.402344 29.941406 Z M 0.402344 0.460938" fill="#726ee0"/></g></g></g></g></g></g><g clip-path="url(#978798c031)"><g clip-path="url(#5363bf69ca)"><g transform="matrix(1, 0, 0, 1, 501, 310)"><g clip-path="url(#4a804e52d3)"><g clip-path="url(#5d1d41798e)"><g clip-path="url(#9808dbe16e)"><path fill-rule="nonzero" fill-opacity="1" d="M 0.71875 0.460938 L 30.199219 0.460938 L 30.199219 29.941406 L 0.71875 29.941406 Z M 0.71875 0.460938" fill="#726ee0"/></g></g></g></g></g></g><g clip-path="url(#522f7abcb9)"><g clip-path="url(#2e6ab65669)"><g transform="matrix(1, 0, 0, 1, 501, 480)"><g clip-path="url(#1fdf7fc94b)"><g clip-path="url(#9e2dd21b69)"><g clip-path="url(#84e6471b79)"><path fill-rule="nonzero" fill-opacity="1" d="M 0.71875 0.558594 L 30.199219 0.558594 L 30.199219 30.039062 L 0.71875 30.039062 Z M 0.71875 0.558594" fill="#726ee0"/></g></g></g></g></g></g><g clip-path="url(#b431f0744e)"><g clip-path="url(#a23298c1c2)"><g transform="matrix(1, 0, 0, 1, 704, 480)"><g clip-path="url(#5904d152ec)"><g clip-path="url(#c52ccf3d02)"><g clip-path="url(#dbc16d905b)"><path fill-rule="nonzero" fill-opacity="1" d="M 0.796875 0.558594 L 30.277344 0.558594 L 30.277344 30.039062 L 0.796875 30.039062 Z M 0.796875 0.558594" fill="#726ee0"/></g></g></g></g></g></g><g clip-path="url(#3e84a3005f)"><g clip-path="url(#4a3da50494)"><g transform="matrix(1, 0, 0, 1, 908, 480)"><g clip-path="url(#39e7beb6b8)"><g clip-path="url(#27bdd8817e)"><g clip-path="url(#ab00a89229)"><path fill-rule="nonzero" fill-opacity="1" d="M 0.800781 0.558594 L 30.28125 0.558594 L 30.28125 30.039062 L 0.800781 30.039062 Z M 0.800781 0.558594" fill="#726ee0"/></g></g></g></g></g></g><g clip-path="url(#c2dc62905b)"><g clip-path="url(#cf08930b59)"><g transform="matrix(1, 0, 0, 1, 908, 310)"><g clip-path="url(#893b6da8dd)"><g clip-path="url(#567aa254ac)"><g clip-path="url(#1f2f600ffb)"><path fill-rule="nonzero" fill-opacity="1" d="M 0.800781 0.460938 L 30.28125 0.460938 L 30.28125 29.941406 L 0.800781 29.941406 Z M 0.800781 0.460938" fill="#726ee0"/></g></g></g></g></g></g><path stroke-miterlimit="4" stroke-opacity="1" stroke-width="15" stroke="#726ee0" d="M 0.00252267 7.499865 L 201.445241 7.499865" stroke-linejoin="miter" fill="none" transform="matrix(0, -0.75, 0.75, 0, 510.832133, 486.93158)" stroke-linecap="butt"/><path stroke-miterlimit="4" stroke-opacity="1" stroke-width="15" stroke="#726ee0" d="M -0.000830749 7.497584 L 131.842926 7.497583" stroke-linejoin="miter" fill="none" transform="matrix(0.000000001309, -0.75, 0.75, 0.000000001309, 747.814313, 418.843127)" stroke-linecap="butt"/><path stroke-miterlimit="4" stroke-opacity="1" stroke-width="15" stroke="#726ee0" d="M -0.00203158 7.498065 L 256.09694 7.498065" stroke-linejoin="miter" fill="none" transform="matrix(-0.75, 0, 0, -0.75, 703.787539, 330.826674)" stroke-linecap="butt"/><path stroke-miterlimit="4" stroke-opacity="1" stroke-width="15" stroke="#726ee0" d="M -0.00202367 7.501888 L 556.123004 7.501888" stroke-linejoin="miter" fill="none" transform="matrix(-0.75, 0, 0, -0.75, 928.799263, 500.923291)" stroke-linecap="butt"/><path stroke-miterlimit="4" stroke-opacity="1" stroke-width="15" stroke="#726ee0" d="M 0.0000946121 7.499134 L 130.968851 7.499134" stroke-linejoin="miter" fill="none" transform="matrix(0, -0.75, 0.75, 0, 917.914712, 502.714915)" stroke-linecap="butt"/><path stroke-miterlimit="4" stroke-opacity="1" stroke-width="15" stroke="#726ee0" d="M -0.00173299 7.499999 L 255.732655 7.499999" stroke-linejoin="miter" fill="none" transform="matrix(-0.75, 0, 0, -0.75, 933.545575, 415.874999)" stroke-linecap="butt"/><path stroke-miterlimit="4" stroke-opacity="1" stroke-width="15" stroke="#726ee0" d="M 0.00172213 7.501935 L 255.730902 7.501935" stroke-linejoin="miter" fill="none" transform="matrix(0.75, 0, 0, 0.75, 741.756521, 319.576674)" stroke-linecap="butt"/><g clip-path="url(#6d94e42095)"><g clip-path="url(#d74bd11427)"><g transform="matrix(1, 0, 0, 1, 510, 319)"><g clip-path="url(#5f10da11af)"><g clip-path="url(#7e2644ec95)"><g clip-path="url(#e3ad4b71dd)"><path fill-rule="nonzero" fill-opacity="1" d="M 0.304688 0.0507812 L 12.613281 0.0507812 L 12.613281 12.355469 L 0.304688 12.355469 Z M 0.304688 0.0507812" fill="#000000"/></g></g></g></g></g></g><g clip-path="url(#158c8c59fb)"><g clip-path="url(#8e13d52080)"><g transform="matrix(1, 0, 0, 1, 684, 319)"><g clip-path="url(#1d6b2ff4ac)"><g clip-path="url(#37d4883c94)"><g clip-path="url(#7996e22c1b)"><path fill-rule="nonzero" fill-opacity="1" d="M 0.992188 0.0507812 L 13.296875 0.0507812 L 13.296875 12.355469 L 0.992188 12.355469 Z M 0.992188 0.0507812" fill="#000000"/></g></g></g></g></g></g><g clip-path="url(#70c726340f)"><g clip-path="url(#2f2cc4204e)"><g transform="matrix(1, 0, 0, 1, 510, 489)"><g clip-path="url(#0822f396ad)"><g clip-path="url(#999f031ab8)"><g clip-path="url(#99f99e8e4d)"><path fill-rule="nonzero" fill-opacity="1" d="M 0.304688 0.144531 L 12.613281 0.144531 L 12.613281 12.449219 L 0.304688 12.449219 Z M 0.304688 0.144531" fill="#000000"/></g></g></g></g></g></g><g clip-path="url(#9fef8590bb)"><g clip-path="url(#61ed5595a0)"><g transform="matrix(1, 0, 0, 1, 713, 489)"><g clip-path="url(#58ecc5882f)"><g clip-path="url(#6095121f09)"><g clip-path="url(#21bcc123ff)"><path fill-rule="nonzero" fill-opacity="1" d="M 0.386719 0.144531 L 12.691406 0.144531 L 12.691406 12.449219 L 0.386719 12.449219 Z M 0.386719 0.144531" fill="#000000"/></g></g></g></g></g></g><g clip-path="url(#3b14e40c7e)"><g clip-path="url(#2204fbc773)"><g transform="matrix(1, 0, 0, 1, 917, 489)"><g clip-path="url(#c2e99b41c3)"><g clip-path="url(#341c2fac20)"><g clip-path="url(#e939184ad0)"><path fill-rule="nonzero" fill-opacity="1" d="M 0.386719 0.144531 L 12.695312 0.144531 L 12.695312 12.449219 L 0.386719 12.449219 Z M 0.386719 0.144531" fill="#000000"/></g></g></g></g></g></g><g clip-path="url(#7391a150ce)"><g clip-path="url(#bea6a7162f)"><g transform="matrix(1, 0, 0, 1, 917, 404)"><g clip-path="url(#a5c1cb8261)"><g clip-path="url(#b0855110cb)"><g clip-path="url(#aa5a2b034d)"><path fill-rule="nonzero" fill-opacity="1" d="M 0.386719 0.0976562 L 12.695312 0.0976562 L 12.695312 12.402344 L 0.386719 12.402344 Z M 0.386719 0.0976562" fill="#000000"/></g></g></g></g></g></g><g clip-path="url(#4c61c0ea46)"><g clip-path="url(#7bfdaabb6e)"><g transform="matrix(1, 0, 0, 1, 747, 404)"><g clip-path="url(#49c659edd8)"><g clip-path="url(#78de8e892c)"><g clip-path="url(#f0a14f8e38)"><path fill-rule="nonzero" fill-opacity="1" d="M 0.292969 0.0976562 L 12.597656 0.0976562 L 12.597656 12.402344 L 0.292969 12.402344 Z M 0.292969 0.0976562" fill="#000000"/></g></g></g></g></g></g><g clip-path="url(#e6464a46fd)"><g clip-path="url(#19879655a2)"><g transform="matrix(1, 0, 0, 1, 747, 319)"><g clip-path="url(#506570c2fb)"><g clip-path="url(#cc14ac105f)"><g clip-path="url(#e8812b94f5)"><path fill-rule="nonzero" fill-opacity="1" d="M 0.292969 0.0507812 L 12.597656 0.0507812 L 12.597656 12.355469 L 0.292969 12.355469 Z M 0.292969 0.0507812" fill="#000000"/></g></g></g></g></g></g><g clip-path="url(#6191f9331c)"><g clip-path="url(#f07a001a6a)"><g transform="matrix(1, 0, 0, 1, 917, 319)"><g clip-path="url(#3f80274112)"><g clip-path="url(#785e4fc7d9)"><g clip-path="url(#fc364505cd)"><path fill-rule="nonzero" fill-opacity="1" d="M 0.386719 0.0507812 L 12.695312 0.0507812 L 12.695312 12.355469 L 0.386719 12.355469 Z M 0.386719 0.0507812" fill="#000000"/></g></g></g></g></g></g></svg>