<svg version="1.0" preserveAspectRatio="xMidYMid meet" viewBox="435.7255343082114 247.859997858 571.7885264341957 320.75999722800003" zoomAndPan="magnify" xmlns:xlink="http://www.w3.org/1999/xlink" xmlns="http://www.w3.org/2000/svg" style="max-height: 500px" width="571.7885264341957" height="320.75999722800003"><defs><clipPath id="f7518a9dc4"><path clip-rule="nonzero" d="M 451.621094 274.921875 L 988.875 274.921875 L 988.875 535.078125 L 451.621094 535.078125 Z M 451.621094 274.921875"/></clipPath><clipPath id="c65eae9604"><path clip-rule="nonzero" d="M 865.023438 367.097656 L 876.546875 351.117188 L 926.496094 351.117188 L 880.113281 274.9375 L 829.355469 274.9375 L 800.40625 317.199219 C 800.664062 318.238281 800.824219 319.316406 800.824219 320.449219 C 800.824219 327.179688 795.765625 332.726562 789.234375 333.5 L 769.285156 362.636719 L 730.175781 362.636719 L 678.253906 442.539062 L 900.523438 442.539062 C 902.933594 439.699219 906.523438 437.898438 910.546875 437.898438 C 917.816406 437.898438 923.707031 443.789062 923.707031 451.058594 C 923.707031 458.328125 917.816406 464.21875 910.546875 464.21875 C 906.386719 464.21875 902.683594 462.277344 900.273438 459.269531 L 667.503906 459.269531 C 665.253906 463.296875 660.957031 466.019531 656.015625 466.019531 C 648.746094 466.019531 642.855469 460.128906 642.855469 452.859375 C 642.855469 445.589844 648.746094 439.699219 656.015625 439.699219 C 656.867188 439.699219 657.683594 439.789062 658.484375 439.9375 L 718.367188 351.5 L 756.785156 351.5 L 775.214844 324.65625 C 774.765625 323.339844 774.515625 321.929688 774.515625 320.457031 C 774.515625 313.378906 780.105469 307.617188 787.113281 307.328125 L 809.09375 275.308594 L 650.816406 275.308594 L 526.574219 459.257812 L 526.515625 459.257812 L 526.515625 459.347656 L 526.324219 459.617188 L 451.636719 459.617188 L 451.636719 506.066406 L 470.214844 535.058594 L 829.925781 535.058594 L 830.015625 534.949219 L 955.496094 535.058594 L 987.273438 502.15625 L 988.355469 441.378906 L 937.246094 367.089844 Z M 865.023438 367.097656"/></clipPath><clipPath id="68ccbdd2a9"><path clip-rule="nonzero" d="M 0.621094 0.921875 L 537.558594 0.921875 L 537.558594 261.078125 L 0.621094 261.078125 Z M 0.621094 0.921875"/></clipPath><clipPath id="c375aac614"><path clip-rule="nonzero" d="M 414.023438 93.097656 L 425.546875 77.117188 L 475.496094 77.117188 L 429.113281 0.9375 L 378.355469 0.9375 L 349.40625 43.199219 C 349.664062 44.238281 349.824219 45.316406 349.824219 46.449219 C 349.824219 53.179688 344.765625 58.726562 338.234375 59.5 L 318.285156 88.636719 L 279.175781 88.636719 L 227.253906 168.539062 L 449.523438 168.539062 C 451.933594 165.699219 455.523438 163.898438 459.546875 163.898438 C 466.816406 163.898438 472.707031 169.789062 472.707031 177.058594 C 472.707031 184.328125 466.816406 190.21875 459.546875 190.21875 C 455.386719 190.21875 451.683594 188.277344 449.273438 185.269531 L 216.503906 185.269531 C 214.253906 189.296875 209.957031 192.019531 205.015625 192.019531 C 197.746094 192.019531 191.855469 186.128906 191.855469 178.859375 C 191.855469 171.589844 197.746094 165.699219 205.015625 165.699219 C 205.867188 165.699219 206.683594 165.789062 207.484375 165.9375 L 267.367188 77.5 L 305.785156 77.5 L 324.214844 50.65625 C 323.765625 49.339844 323.515625 47.929688 323.515625 46.457031 C 323.515625 39.378906 329.105469 33.617188 336.113281 33.328125 L 358.09375 1.308594 L 199.816406 1.308594 L 75.574219 185.257812 L 75.515625 185.257812 L 75.515625 185.347656 L 75.324219 185.617188 L 0.636719 185.617188 L 0.636719 232.066406 L 19.214844 261.058594 L 378.925781 261.058594 L 379.015625 260.949219 L 504.496094 261.058594 L 536.273438 228.15625 L 537.355469 167.378906 L 486.246094 93.089844 Z M 414.023438 93.097656"/></clipPath><clipPath id="8c09e6b5f3"><rect height="262" y="0" width="538" x="0"/></clipPath><clipPath id="6f261a49c4"><path clip-rule="nonzero" d="M 902.15625 443 L 919 443 L 919 459 L 902.15625 459 Z M 902.15625 443"/></clipPath><clipPath id="ddf8f433ea"><path clip-rule="nonzero" d="M 918.425781 451.039062 C 918.425781 453.878906 916.914062 456.367188 914.65625 457.757812 C 913.464844 458.488281 912.054688 458.917969 910.546875 458.917969 C 906.195312 458.917969 902.664062 455.386719 902.664062 451.039062 C 902.664062 448.726562 903.675781 446.65625 905.253906 445.21875 C 906.65625 443.949219 908.515625 443.15625 910.546875 443.15625 C 914.894531 443.15625 918.425781 446.6875 918.425781 451.039062"/></clipPath><clipPath id="5f9764b537"><path clip-rule="nonzero" d="M 0.640625 0.0390625 L 16.480469 0.0390625 L 16.480469 16 L 0.640625 16 Z M 0.640625 0.0390625"/></clipPath><clipPath id="2197ce35be"><path clip-rule="nonzero" d="M 16.425781 8.039062 C 16.425781 10.878906 14.914062 13.367188 12.65625 14.757812 C 11.464844 15.488281 10.054688 15.917969 8.546875 15.917969 C 4.195312 15.917969 0.664062 12.386719 0.664062 8.039062 C 0.664062 5.726562 1.675781 3.65625 3.253906 2.21875 C 4.65625 0.949219 6.515625 0.15625 8.546875 0.15625 C 12.894531 0.15625 16.425781 3.6875 16.425781 8.039062"/></clipPath><clipPath id="089a80a6bd"><rect height="16" y="0" width="17" x="0"/></clipPath><clipPath id="4c2e9a28e4"><path clip-rule="nonzero" d="M 648 444.371094 L 663.929688 444.371094 L 663.929688 461 L 648 461 Z M 648 444.371094"/></clipPath><clipPath id="a331c7cf15"><path clip-rule="nonzero" d="M 663.90625 452.847656 C 663.90625 455.488281 662.585938 457.828125 660.605469 459.257812 C 659.304688 460.179688 657.734375 460.726562 656.023438 460.726562 C 654.316406 460.726562 652.734375 460.179688 651.445312 459.257812 C 649.964844 458.199219 648.867188 456.636719 648.394531 454.839844 C 648.246094 454.199219 648.144531 453.539062 648.144531 452.847656 C 648.144531 448.828125 651.15625 445.527344 655.035156 445.039062 C 655.355469 444.996094 655.695312 444.96875 656.023438 444.96875 C 660.375 444.96875 663.90625 448.496094 663.90625 452.847656"/></clipPath><clipPath id="2e8f58e56c"><path clip-rule="nonzero" d="M 0 0.960938 L 15.929688 0.960938 L 15.929688 16.800781 L 0 16.800781 Z M 0 0.960938"/></clipPath><clipPath id="af039f9bac"><path clip-rule="nonzero" d="M 15.90625 8.847656 C 15.90625 11.488281 14.585938 13.828125 12.605469 15.257812 C 11.304688 16.179688 9.734375 16.726562 8.023438 16.726562 C 6.316406 16.726562 4.734375 16.179688 3.445312 15.257812 C 1.964844 14.199219 0.867188 12.636719 0.394531 10.839844 C 0.246094 10.199219 0.144531 9.539062 0.144531 8.847656 C 0.144531 4.828125 3.15625 1.527344 7.035156 1.039062 C 7.355469 0.996094 7.695312 0.96875 8.023438 0.96875 C 12.375 0.96875 15.90625 4.496094 15.90625 8.847656"/></clipPath><clipPath id="ad50477696"><rect height="17" y="0" width="16" x="0"/></clipPath><clipPath id="2f6c54ec9a"><path clip-rule="nonzero" d="M 779.554688 312 L 796 312 L 796 328.746094 L 779.554688 328.746094 Z M 779.554688 312"/></clipPath><clipPath id="30860c4af9"><path clip-rule="nonzero" d="M 787.675781 328.328125 C 792.023438 328.328125 795.554688 324.796875 795.554688 320.449219 C 795.554688 316.097656 792.023438 312.566406 787.675781 312.566406 C 783.324219 312.566406 779.796875 316.097656 779.796875 320.449219 C 779.796875 324.796875 783.324219 328.328125 787.675781 328.328125"/></clipPath><clipPath id="de538f9a06"><path clip-rule="nonzero" d="M 0.761719 0.480469 L 16.601562 0.480469 L 16.601562 16.558594 L 0.761719 16.558594 Z M 0.761719 0.480469"/></clipPath><clipPath id="175382526b"><path clip-rule="nonzero" d="M 8.675781 16.328125 C 13.023438 16.328125 16.554688 12.796875 16.554688 8.449219 C 16.554688 4.097656 13.023438 0.566406 8.675781 0.566406 C 4.324219 0.566406 0.796875 4.097656 0.796875 8.449219 C 0.796875 12.796875 4.324219 16.328125 8.675781 16.328125"/></clipPath><clipPath id="b7a02fd9e1"><rect height="17" y="0" width="17" x="0"/></clipPath></defs><g clip-path="url(#f7518a9dc4)"><g clip-path="url(#c65eae9604)"><g transform="matrix(1, 0, 0, 1, 451, 274)"><g clip-path="url(#8c09e6b5f3)"><g clip-path="url(#68ccbdd2a9)"><g clip-path="url(#c375aac614)"><rect fill-opacity="1" y="-452.199998" height="1166.39999" fill="#ffffff" width="2073.6" x="-767.8"/></g></g></g></g></g></g><g clip-path="url(#6f261a49c4)"><g clip-path="url(#ddf8f433ea)"><g transform="matrix(1, 0, 0, 1, 902, 443)"><g clip-path="url(#089a80a6bd)"><g clip-path="url(#5f9764b537)"><g clip-path="url(#2197ce35be)"><rect fill-opacity="1" y="-621.199998" height="1166.39999" fill="#ffffff" width="2073.6" x="-1218.8"/></g></g></g></g></g></g><g clip-path="url(#4c2e9a28e4)"><g clip-path="url(#a331c7cf15)"><g transform="matrix(1, 0, 0, 1, 648, 444)"><g clip-path="url(#ad50477696)"><g clip-path="url(#2e8f58e56c)"><g clip-path="url(#af039f9bac)"><rect fill-opacity="1" y="-622.199998" height="1166.39999" fill="#ffffff" width="2073.6" x="-964.8"/></g></g></g></g></g></g><g clip-path="url(#2f6c54ec9a)"><g clip-path="url(#30860c4af9)"><g transform="matrix(1, 0, 0, 1, 779, 312)"><g clip-path="url(#b7a02fd9e1)"><g clip-path="url(#de538f9a06)"><g clip-path="url(#175382526b)"><rect fill-opacity="1" y="-490.199998" height="1166.39999" fill="#ffffff" width="2073.6" x="-1095.8"/></g></g></g></g></g></g></svg>